# Blender v2.91.2 OBJ File: 'TheRock.blend'
# www.blender.org
o RightEye_TheRock_eyeR_hi
v -23.784100 40.374092 41.138706
v -22.968700 40.655693 40.320107
v -24.727600 41.862194 41.282707
v -24.939600 41.330193 41.660908
v -35.141399 36.185291 43.682808
v -35.063099 35.240093 43.080708
v -32.729401 35.207394 43.492809
v -32.895100 35.845592 43.986008
v -39.194401 41.611092 42.093208
v -39.919601 40.473194 41.743507
v -38.244499 40.731293 43.185307
v -38.327000 41.488792 42.938709
v -37.674000 42.172493 43.101608
v -36.879002 41.153393 43.985409
v -35.971001 42.201092 43.997707
v -36.882900 43.021294 43.113209
v -35.227001 43.813293 43.362507
v -34.745201 42.897194 44.101406
v -33.325100 43.182392 44.218109
v -33.394001 44.090492 43.513107
v -31.484301 43.821293 43.582809
v -31.932100 42.892593 44.293507
v -30.642599 42.268993 44.310509
v -29.593700 43.082493 43.514709
v -35.359501 39.217892 44.616009
v -36.711300 38.748993 44.137409
v -36.029999 37.758091 44.175209
v -35.041500 38.548294 44.623009
v -32.607899 41.679691 44.686909
v -31.702200 41.416492 44.710609
v -32.584400 38.434692 44.784809
v -33.486801 39.942791 44.953709
v -34.187500 38.377491 44.725506
v -33.340099 38.061291 44.761208
v -35.363800 40.570293 44.575607
v -36.966202 39.809193 44.099709
v -35.764500 39.846893 44.529007
v -34.247101 41.647892 44.595306
v -35.078999 41.382694 44.510807
v -33.408001 42.056492 44.591908
v -26.514299 43.504494 41.829906
v -27.123199 42.710892 42.554806
v -24.287901 42.286892 40.925606
v -22.234699 40.798691 39.913609
v -22.107401 39.527294 39.886208
v -21.141199 39.363792 39.619308
v -20.878799 38.425892 39.675308
v -22.006399 38.672493 39.956009
v -22.041401 38.030293 40.089409
v -20.790100 37.764393 39.731007
v -20.873400 37.257393 39.760006
v -22.240499 37.415394 40.169006
v -22.792801 36.677692 40.257507
v -21.101200 36.710392 39.741909
v -21.211700 36.205391 39.649609
v -22.903099 36.039391 40.053406
v -22.837000 35.631893 39.718208
v -21.261600 35.897694 39.420807
v -40.669601 35.623894 40.517406
v -40.654598 36.119392 40.523407
v -42.126499 36.978893 39.425407
v -42.795101 36.689194 38.821007
v -44.226700 37.676693 37.439407
v -43.344700 37.963993 38.197109
v -43.698101 38.509293 37.840908
v -44.718498 38.152092 36.984806
v -44.343498 38.764992 37.239307
v -43.482300 39.061993 38.019009
v -42.748901 40.011593 38.689709
v -43.254902 40.057293 38.037807
v -41.887699 41.400291 39.069809
v -41.412399 41.108891 39.877209
v -40.102200 42.019894 40.868908
v -40.461498 42.401192 40.158707
v -39.069500 43.379894 41.120808
v -38.658901 42.764091 42.002110
v -37.260799 43.782593 42.364006
v -37.628101 44.321491 41.725807
v -35.660900 45.011292 42.197208
v -35.472500 44.446693 42.719707
v -33.375401 44.690193 42.913208
v -33.271198 45.286293 42.387707
v -30.905100 45.116692 42.330509
v -31.234301 44.498592 42.910107
v -29.149900 43.847893 42.810307
v -28.597200 44.488194 42.180508
v -31.493700 39.350491 44.775806
v -31.732500 38.677193 44.733009
v -31.473600 40.635693 44.785206
v -31.052500 39.953693 44.750710
v -40.804798 40.721592 40.712109
v -39.952099 41.595192 41.299606
v -25.225401 39.153091 42.412907
v -24.961100 39.989391 42.217709
v -27.315599 40.604794 43.427208
v -27.454300 39.753693 43.533707
v -30.733601 36.411793 44.137409
v -29.616600 35.597893 43.506706
v -27.447701 36.982792 43.016308
v -28.619600 37.555191 43.712208
v -26.097300 35.884991 41.702908
v -26.065001 35.389191 41.334007
v -23.295099 39.163292 40.943008
v -23.574800 38.584793 41.244007
v -39.354099 35.830791 41.521606
v -40.899899 37.314892 40.529408
v -29.617599 35.003292 42.829704
v -32.712299 34.764091 42.884804
v -41.996799 39.590393 39.691608
v -42.056702 39.992092 39.551907
v -38.784401 37.074993 42.394608
v -37.885300 35.617493 42.390907
v -36.675098 35.510693 42.857208
v -37.252998 37.039692 43.392609
v -25.852900 36.589691 41.947006
v -26.063499 41.358192 42.497108
v -27.218100 41.294094 43.227207
v -23.064600 39.655094 40.644909
v -41.759300 38.329391 40.080406
v -39.634102 38.466293 42.162407
v -39.900299 39.525494 42.003307
v -41.858299 39.116692 39.984306
v -38.042999 38.496094 43.382309
v -38.221199 39.724091 43.379406
v -36.320999 34.470291 41.536804
v -35.454300 34.440392 41.690403
v -35.039799 34.726093 42.445705
v -36.423302 34.809093 42.277504
v -38.862999 34.654793 41.118004
v -37.144501 34.528191 41.409405
v -37.476398 34.905693 42.009003
v -38.808399 35.037594 41.560303
v -31.694099 37.406094 44.586208
v -33.127602 36.985893 44.525806
v -34.637600 37.258991 44.364307
v -29.543900 41.182892 44.282406
v -28.437500 42.165592 43.529507
v -21.164801 40.773891 39.266708
v -23.463400 42.495392 40.439106
v -25.703400 44.208591 41.443409
v -19.741899 38.195293 39.779308
v -20.438000 39.493191 39.552307
v -19.630800 37.120594 39.744308
v -19.689100 37.658092 39.761608
v -20.280399 36.320793 39.937607
v -19.960199 36.722393 39.840508
v -21.756201 35.312393 38.583809
v -21.002501 35.820393 39.287506
v -45.328602 37.777393 36.669506
v -43.048599 36.374493 38.662506
v -40.726601 34.826492 40.701702
v -45.314701 38.231594 36.634308
v -45.321602 38.004494 36.652008
v -42.230202 41.709892 38.210106
v -43.757999 40.035694 37.437908
v -39.668499 43.837193 40.471909
v -40.935799 42.744194 39.308006
v -35.936798 45.721394 42.069408
v -37.833302 44.794193 41.222706
v -30.604700 45.890194 41.880306
v -33.287201 45.770592 41.979607
v -28.158899 45.041691 41.651409
v -30.399000 38.038494 44.401608
v -29.756901 38.950592 44.352009
v -29.458099 39.911392 44.345207
v -27.736601 38.686192 43.538006
v -25.815201 38.137093 42.595009
v -29.707600 34.519093 43.026604
v -25.802401 35.039291 40.837902
v -24.129499 37.720791 41.408009
v -32.617500 34.460392 42.307903
vt 0.845557 0.766532
vt 0.881032 0.784394
vt 0.803876 0.834893
vt 0.802204 0.812575
vt 0.445815 0.584094
vt 0.431156 0.548405
vt 0.524421 0.548350
vt 0.518972 0.578007
vt 0.271350 0.816815
vt 0.250643 0.763968
vt 0.319642 0.791076
vt 0.314504 0.815192
vt 0.340349 0.843923
vt 0.388641 0.818184
vt 0.423805 0.859188
vt 0.380877 0.880451
vt 0.443606 0.922766
vt 0.458969 0.900191
vt 0.510604 0.900191
vt 0.503599 0.925185
vt 0.567423 0.922766
vt 0.562239 0.900191
vt 0.600860 0.859245
vt 0.635878 0.885933
vt 0.449694 0.734006
vt 0.387323 0.703606
vt 0.423898 0.661694
vt 0.455979 0.698902
vt 0.537152 0.832299
vt 0.569020 0.825221
vt 0.538295 0.693455
vt 0.512065 0.764407
vt 0.486269 0.692095
vt 0.512142 0.673404
vt 0.450353 0.791295
vt 0.387982 0.760895
vt 0.433173 0.762011
vt 0.485517 0.832299
vt 0.456219 0.824626
vt 0.510884 0.850705
vt 0.749414 0.905370
vt 0.726719 0.885393
vt 0.820823 0.849217
vt 0.900401 0.786113
vt 0.890215 0.738817
vt 0.923476 0.732491
vt 0.937297 0.690693
vt 0.899398 0.693239
vt 0.898037 0.674672
vt 0.938225 0.670771
vt 0.938514 0.651921
vt 0.896675 0.656104
vt 0.891607 0.626367
vt 0.927850 0.629426
vt 0.922770 0.606327
vt 0.886539 0.596630
vt 0.893721 0.587561
vt 0.921050 0.599312
vt 0.222638 0.547019
vt 0.227728 0.563242
vt 0.157068 0.607568
vt 0.139905 0.598176
vt 0.064256 0.647523
vt 0.086408 0.651894
vt 0.086851 0.660360
vt 0.064699 0.655989
vt 0.065143 0.664455
vt 0.087295 0.668826
vt 0.138638 0.726900
vt 0.122358 0.729988
vt 0.177202 0.792113
vt 0.189981 0.784975
vt 0.241019 0.827318
vt 0.226609 0.838114
vt 0.275631 0.883315
vt 0.292057 0.869661
vt 0.360150 0.907501
vt 0.342636 0.921000
vt 0.419243 0.961594
vt 0.428243 0.945341
vt 0.500425 0.945341
vt 0.503253 0.965748
vt 0.582292 0.966486
vt 0.572606 0.945341
vt 0.649663 0.915367
vt 0.669148 0.936137
vt 0.574570 0.734006
vt 0.568396 0.699813
vt 0.575773 0.791353
vt 0.592552 0.762237
vt 0.220312 0.774471
vt 0.244116 0.809380
vt 0.803181 0.706863
vt 0.810082 0.748670
vt 0.724781 0.783485
vt 0.717018 0.737074
vt 0.591106 0.585399
vt 0.617686 0.548295
vt 0.706983 0.606676
vt 0.673108 0.636832
vt 0.752112 0.572462
vt 0.756196 0.562077
vt 0.854740 0.720954
vt 0.845055 0.692531
vt 0.282662 0.558512
vt 0.209176 0.620663
vt 0.622091 0.537262
vt 0.524805 0.536745
vt 0.168969 0.716397
vt 0.168204 0.730576
vt 0.293738 0.616391
vt 0.337595 0.553781
vt 0.384376 0.551093
vt 0.361346 0.629064
vt 0.766989 0.603410
vt 0.768400 0.817031
vt 0.727583 0.812464
vt 0.860984 0.741127
vt 0.168145 0.665448
vt 0.249881 0.679001
vt 0.250262 0.721485
vt 0.176948 0.694162
vt 0.318602 0.691303
vt 0.322521 0.743272
vt 0.405902 0.525987
vt 0.433402 0.526017
vt 0.432279 0.537211
vt 0.394564 0.539778
vt 0.297976 0.528377
vt 0.378402 0.525957
vt 0.357999 0.539869
vt 0.293749 0.542816
vt 0.564525 0.622503
vt 0.512500 0.621142
vt 0.460474 0.619782
vt 0.639480 0.818300
vt 0.683100 0.851846
vt 0.919769 0.787832
vt 0.845939 0.856589
vt 0.772109 0.925347
vt 0.975196 0.688147
vt 0.947482 0.737990
vt 0.980352 0.647738
vt 0.977774 0.667943
vt 0.959002 0.616024
vt 0.969677 0.631881
vt 0.900904 0.578492
vt 0.929953 0.597258
vt 0.042104 0.643152
vt 0.129826 0.586974
vt 0.217549 0.530796
vt 0.042990 0.660084
vt 0.042547 0.651618
vt 0.164424 0.799251
vt 0.103707 0.729667
vt 0.259206 0.896968
vt 0.211815 0.848109
vt 0.410244 0.977846
vt 0.334725 0.937407
vt 0.591978 0.987631
vt 0.501111 0.982738
vt 0.682043 0.956489
vt 0.600801 0.663054
vt 0.637076 0.703606
vt 0.638278 0.760953
vt 0.716678 0.684331
vt 0.796279 0.665056
vt 0.626495 0.526229
vt 0.763700 0.552361
vt 0.846477 0.660580
vt 0.529948 0.526123
vn 0.6259 0.2326 0.7444
vn 0.5614 0.1207 0.8187
vn 0.5370 0.2629 0.8016
vn 0.5785 0.2957 0.7602
vn -0.2217 -0.4827 0.8472
vn -0.1736 -0.6673 0.7243
vn -0.0239 -0.7056 0.7081
vn -0.0604 -0.5405 0.8391
vn -0.6645 0.2907 0.6883
vn -0.6954 0.2004 0.6901
vn -0.5842 0.1761 0.7923
vn -0.5837 0.2748 0.7640
vn -0.5170 0.3727 0.7705
vn -0.4248 0.2175 0.8787
vn -0.3354 0.3564 0.8720
vn -0.4256 0.4730 0.7714
vn -0.2613 0.5853 0.7676
vn -0.2261 0.4229 0.8775
vn -0.0513 0.4769 0.8774
vn -0.0494 0.6627 0.7472
vn 0.1555 0.6114 0.7759
vn 0.1144 0.4278 0.8966
vn 0.2262 0.3484 0.9096
vn 0.3040 0.4995 0.8112
vn -0.2347 -0.0612 0.9701
vn -0.3897 -0.1478 0.9090
vn -0.3100 -0.2923 0.9047
vn -0.2001 -0.1720 0.9645
vn 0.0193 0.2185 0.9756
vn 0.1013 0.2035 0.9738
vn 0.0503 -0.1214 0.9913
vn -0.0511 0.0245 0.9984
vn -0.1285 -0.1623 0.9783
vn -0.0374 -0.1346 0.9902
vn -0.2398 0.1196 0.9634
vn -0.4246 0.0251 0.9050
vn -0.2819 0.0234 0.9591
vn -0.1425 0.2285 0.9630
vn -0.2292 0.2250 0.9470
vn -0.0609 0.2509 0.9661
vn 0.3820 0.3073 0.8715
vn 0.4447 0.3984 0.8021
vn 0.4866 0.1779 0.8553
vn 0.4660 0.1003 0.8791
vn 0.4461 0.0931 0.8901
vn 0.1802 0.0259 0.9832
vn 0.1237 0.1126 0.9859
vn 0.4486 0.1386 0.8829
vn 0.4343 0.0534 0.8991
vn 0.1201 0.0662 0.9905
vn 0.1134 -0.0009 0.9935
vn 0.3967 -0.0918 0.9133
vn 0.3906 -0.2871 0.8746
vn 0.1164 -0.1473 0.9822
vn 0.1027 -0.4499 0.8871
vn 0.3503 -0.4613 0.8151
vn 0.3245 -0.6879 0.6491
vn 0.2351 -0.5839 0.7770
vn -0.5314 0.0626 0.8448
vn -0.6071 -0.0169 0.7944
vn -0.6731 -0.0916 0.7338
vn -0.6440 0.0576 0.7628
vn -0.6012 0.1595 0.7830
vn -0.7096 0.0122 0.7045
vn -0.6967 0.0399 0.7162
vn -0.5386 0.0791 0.8388
vn -0.6303 0.1089 0.7687
vn -0.7129 0.0446 0.6998
vn -0.7538 0.2217 0.6185
vn -0.7461 0.2733 0.6071
vn -0.7501 0.3957 0.5298
vn -0.7315 0.3122 0.6061
vn -0.7042 0.3807 0.5993
vn -0.7073 0.4165 0.5711
vn -0.6215 0.3980 0.6747
vn -0.6049 0.4335 0.6680
vn -0.4565 0.5256 0.7178
vn -0.4859 0.5189 0.7033
vn -0.2327 0.4100 0.8819
vn -0.2556 0.6231 0.7392
vn -0.0438 0.6824 0.7297
vn -0.0301 0.6533 0.7564
vn 0.1323 0.5600 0.8178
vn 0.1434 0.6528 0.7438
vn 0.2971 0.5428 0.7855
vn 0.2874 0.5332 0.7956
vn 0.1382 -0.0725 0.9877
vn 0.1278 -0.1579 0.9791
vn 0.1341 0.0890 0.9869
vn 0.1909 -0.0141 0.9815
vn -0.7210 0.2310 0.6532
vn -0.7023 0.3219 0.6349
vn 0.5139 -0.0490 0.8564
vn 0.5652 0.1503 0.8111
vn 0.4338 0.1286 0.8918
vn 0.4087 -0.0240 0.9124
vn 0.1808 -0.3777 0.9081
vn 0.2718 -0.5346 0.8002
vn 0.4198 -0.3166 0.8506
vn 0.3587 -0.2219 0.9066
vn 0.4166 -0.4828 0.7703
vn 0.3787 -0.5981 0.7063
vn 0.6285 0.1219 0.7682
vn 0.5804 -0.0375 0.8135
vn -0.5608 -0.2762 0.7804
vn -0.6454 -0.2003 0.7371
vn 0.2540 -0.3016 0.9190
vn -0.0084 -0.8470 0.5314
vn -0.7477 0.1481 0.6472
vn -0.7470 0.2015 0.6335
vn -0.5690 -0.2824 0.7722
vn -0.4242 -0.4380 0.7926
vn -0.2883 -0.5396 0.7910
vn -0.4273 -0.3584 0.8300
vn 0.4531 -0.3792 0.8067
vn 0.5220 0.3067 0.7959
vn 0.4608 0.2704 0.8453
vn 0.6337 0.1322 0.7622
vn -0.7090 -0.1028 0.6976
vn -0.6457 -0.1574 0.7472
vn -0.6806 0.0599 0.7302
vn -0.7431 0.0881 0.6634
vn -0.5322 -0.1678 0.8298
vn -0.5692 0.0328 0.8216
vn -0.1337 -0.9015 0.4115
vn -0.0955 -0.9126 0.3976
vn -0.1196 -0.8459 0.5197
vn -0.1644 -0.7996 0.5775
vn -0.3942 -0.6176 0.6806
vn -0.1381 -0.8708 0.4718
vn -0.2680 -0.7361 0.6215
vn -0.4021 -0.4682 0.7868
vn 0.1192 -0.2050 0.9715
vn -0.0615 -0.3400 0.9384
vn -0.2017 -0.3489 0.9152
vn 0.3088 0.1748 0.9349
vn 0.3893 0.3653 0.8455
vn 0.4875 0.3668 0.7923
vn 0.4815 0.1002 0.8707
vn 0.3395 0.1211 0.9328
vn -0.0879 0.0156 0.9960
vn 0.1214 0.1133 0.9861
vn 0.0203 0.0705 0.9973
vn -0.0305 -0.0051 0.9995
vn -0.3143 0.2538 0.9147
vn -0.0656 0.1799 0.9815
vn 0.2281 -0.8585 0.4592
vn 0.0981 -0.7446 0.6602
vn -0.5618 0.1154 0.8191
vn -0.6128 0.1319 0.7791
vn -0.3369 0.2348 0.9118
vn -0.5620 0.0906 0.8222
vn -0.5465 0.0872 0.8329
vn -0.7529 0.4638 0.4670
vn -0.7338 0.2679 0.6243
vn -0.6558 0.1810 0.7329
vn -0.7250 0.3899 0.5677
vn -0.2221 0.0885 0.9710
vn -0.4963 0.4580 0.7375
vn 0.1376 0.4578 0.8783
vn -0.0257 0.5920 0.8055
vn 0.2798 0.4821 0.8302
vn 0.2524 -0.1567 0.9548
vn 0.2928 -0.1216 0.9484
vn 0.3094 -0.0101 0.9509
vn 0.3875 -0.1394 0.9113
vn 0.4616 -0.2249 0.8581
vn 0.0461 0.3689 0.9283
vn 0.3784 -0.6393 0.6694
vn 0.5042 -0.2479 0.8272
vn -0.0141 -0.8620 0.5066
s 1
f 1/1/1 2/2/2 3/3/3
f 1/1/1 3/3/3 4/4/4
f 5/5/5 6/6/6 7/7/7
f 5/5/5 7/7/7 8/8/8
f 9/9/9 10/10/10 11/11/11
f 9/9/9 11/11/11 12/12/12
f 13/13/13 14/14/14 15/15/15
f 13/13/13 15/15/15 16/16/16
f 17/17/17 18/18/18 19/19/19
f 17/17/17 19/19/19 20/20/20
f 21/21/21 22/22/22 23/23/23
f 21/21/21 23/23/23 24/24/24
f 25/25/25 26/26/26 27/27/27
f 25/25/25 27/27/27 28/28/28
f 23/23/23 22/22/22 29/29/29
f 23/23/23 29/29/29 30/30/30
f 31/31/31 32/32/32 33/33/33
f 31/31/31 33/33/33 34/34/34
f 35/35/35 14/14/14 36/36/36
f 35/35/35 36/36/36 37/37/37
f 38/38/38 18/18/18 15/15/15
f 38/38/38 15/15/15 39/39/39
f 29/29/29 22/22/22 19/19/19
f 29/29/29 19/19/19 40/40/40
f 41/41/41 42/42/42 3/3/3
f 41/41/41 3/3/3 43/43/43
f 44/44/44 2/2/2 45/45/45
f 44/44/44 45/45/45 46/46/46
f 47/47/47 48/48/48 49/49/49
f 47/47/47 49/49/49 50/50/50
f 51/51/51 52/52/52 53/53/53
f 51/51/51 53/53/53 54/54/54
f 55/55/55 56/56/56 57/57/57
f 55/55/55 57/57/57 58/58/58
f 59/59/59 60/60/60 61/61/61
f 59/59/59 61/61/61 62/62/62
f 63/63/63 64/64/64 65/65/65
f 63/63/63 65/65/65 66/66/66
f 67/67/67 68/68/68 69/69/69
f 67/67/67 69/69/69 70/70/70
f 71/71/71 72/72/72 73/73/73
f 71/71/71 73/73/73 74/74/74
f 75/75/75 76/76/76 77/77/77
f 75/75/75 77/77/77 78/78/78
f 79/79/79 80/80/80 81/81/81
f 79/79/79 81/81/81 82/82/82
f 83/83/83 84/84/84 85/85/85
f 83/83/83 85/85/85 86/86/86
f 87/87/87 32/32/32 31/31/31
f 87/87/87 31/31/31 88/88/88
f 89/89/89 32/32/32 87/87/87
f 89/89/89 87/87/87 90/90/90
f 91/91/91 10/10/10 9/9/9
f 91/91/91 9/9/9 92/92/92
f 93/93/93 94/94/94 95/95/95
f 93/93/93 95/95/95 96/96/96
f 97/97/97 98/98/98 99/99/99
f 97/97/97 99/99/99 100/100/100
f 57/57/57 56/56/56 101/101/101
f 57/57/57 101/101/101 102/102/102
f 49/49/49 48/48/48 103/103/103
f 49/49/49 103/103/103 104/104/104
f 61/61/61 60/60/60 105/105/105
f 61/61/61 105/105/105 106/106/106
f 107/107/107 98/98/98 7/7/7
f 107/107/107 7/7/7 108/108/108
f 69/69/69 68/68/68 109/109/109
f 69/69/69 109/109/109 110/110/110
f 111/111/111 112/112/112 113/113/113
f 111/111/111 113/113/113 114/114/114
f 101/101/101 56/56/56 53/53/53
f 101/101/101 53/53/53 115/115/115
f 95/95/95 94/94/94 116/116/116
f 95/95/95 116/116/116 117/117/117
f 45/45/45 2/2/2 1/1/1
f 45/45/45 1/1/1 118/118/118
f 119/119/119 120/120/120 121/121/121
f 119/119/119 121/121/121 122/122/122
f 123/123/123 26/26/26 36/36/36
f 123/123/123 36/36/36 124/124/124
f 125/125/125 126/126/126 127/127/127
f 125/125/125 127/127/127 128/128/128
f 129/129/129 130/130/130 131/131/131
f 129/129/129 131/131/131 132/132/132
f 3/3/3 42/42/42 116/116/116
f 3/3/3 116/116/116 4/4/4
f 116/116/116 94/94/94 1/1/1
f 116/116/116 1/1/1 4/4/4
f 7/7/7 98/98/98 97/97/97
f 7/7/7 97/97/97 8/8/8
f 97/97/97 133/133/133 134/134/134
f 97/97/97 134/134/134 8/8/8
f 134/134/134 135/135/135 5/5/5
f 134/134/134 5/5/5 8/8/8
f 11/11/11 14/14/14 13/13/13
f 11/11/11 13/13/13 12/12/12
f 13/13/13 76/76/76 9/9/9
f 13/13/13 9/9/9 12/12/12
f 15/15/15 18/18/18 17/17/17
f 15/15/15 17/17/17 16/16/16
f 17/17/17 80/80/80 77/77/77
f 17/17/17 77/77/77 16/16/16
f 77/77/77 76/76/76 13/13/13
f 77/77/77 13/13/13 16/16/16
f 19/19/19 22/22/22 21/21/21
f 19/19/19 21/21/21 20/20/20
f 21/21/21 84/84/84 81/81/81
f 21/21/21 81/81/81 20/20/20
f 81/81/81 80/80/80 17/17/17
f 81/81/81 17/17/17 20/20/20
f 23/23/23 136/136/136 137/137/137
f 23/23/23 137/137/137 24/24/24
f 137/137/137 42/42/42 85/85/85
f 137/137/137 85/85/85 24/24/24
f 85/85/85 84/84/84 21/21/21
f 85/85/85 21/21/21 24/24/24
f 27/27/27 135/135/135 33/33/33
f 27/27/27 33/33/33 28/28/28
f 33/33/33 32/32/32 25/25/25
f 33/33/33 25/25/25 28/28/28
f 29/29/29 32/32/32 89/89/89
f 29/29/29 89/89/89 30/30/30
f 89/89/89 136/136/136 23/23/23
f 89/89/89 23/23/23 30/30/30
f 33/33/33 135/135/135 134/134/134
f 33/33/33 134/134/134 34/34/34
f 134/134/134 133/133/133 31/31/31
f 134/134/134 31/31/31 34/34/34
f 36/36/36 26/26/26 25/25/25
f 36/36/36 25/25/25 37/37/37
f 25/25/25 32/32/32 35/35/35
f 25/25/25 35/35/35 37/37/37
f 15/15/15 14/14/14 35/35/35
f 15/15/15 35/35/35 39/39/39
f 35/35/35 32/32/32 38/38/38
f 35/35/35 38/38/38 39/39/39
f 19/19/19 18/18/18 38/38/38
f 19/19/19 38/38/38 40/40/40
f 38/38/38 32/32/32 29/29/29
f 38/38/38 29/29/29 40/40/40
f 3/3/3 2/2/2 44/44/44
f 3/3/3 44/44/44 43/43/43
f 44/44/44 138/138/138 139/139/139
f 44/44/44 139/139/139 43/43/43
f 139/139/139 140/140/140 41/41/41
f 139/139/139 41/41/41 43/43/43
f 45/45/45 48/48/48 47/47/47
f 45/45/45 47/47/47 46/46/46
f 47/47/47 141/141/141 142/142/142
f 47/47/47 142/142/142 46/46/46
f 142/142/142 138/138/138 44/44/44
f 142/142/142 44/44/44 46/46/46
f 49/49/49 52/52/52 51/51/51
f 49/49/49 51/51/51 50/50/50
f 51/51/51 143/143/143 144/144/144
f 51/51/51 144/144/144 50/50/50
f 144/144/144 141/141/141 47/47/47
f 144/144/144 47/47/47 50/50/50
f 53/53/53 56/56/56 55/55/55
f 53/53/53 55/55/55 54/54/54
f 55/55/55 145/145/145 146/146/146
f 55/55/55 146/146/146 54/54/54
f 146/146/146 143/143/143 51/51/51
f 146/146/146 51/51/51 54/54/54
f 57/57/57 147/147/147 148/148/148
f 57/57/57 148/148/148 58/58/58
f 148/148/148 145/145/145 55/55/55
f 148/148/148 55/55/55 58/58/58
f 61/61/61 64/64/64 63/63/63
f 61/61/61 63/63/63 62/62/62
f 63/63/63 149/149/149 150/150/150
f 63/63/63 150/150/150 62/62/62
f 150/150/150 151/151/151 59/59/59
f 150/150/150 59/59/59 62/62/62
f 65/65/65 68/68/68 67/67/67
f 65/65/65 67/67/67 66/66/66
f 67/67/67 152/152/152 153/153/153
f 67/67/67 153/153/153 66/66/66
f 153/153/153 149/149/149 63/63/63
f 153/153/153 63/63/63 66/66/66
f 69/69/69 72/72/72 71/71/71
f 69/69/69 71/71/71 70/70/70
f 71/71/71 154/154/154 155/155/155
f 71/71/71 155/155/155 70/70/70
f 155/155/155 152/152/152 67/67/67
f 155/155/155 67/67/67 70/70/70
f 73/73/73 76/76/76 75/75/75
f 73/73/73 75/75/75 74/74/74
f 75/75/75 156/156/156 157/157/157
f 75/75/75 157/157/157 74/74/74
f 157/157/157 154/154/154 71/71/71
f 157/157/157 71/71/71 74/74/74
f 77/77/77 80/80/80 79/79/79
f 77/77/77 79/79/79 78/78/78
f 79/79/79 158/158/158 159/159/159
f 79/79/79 159/159/159 78/78/78
f 159/159/159 156/156/156 75/75/75
f 159/159/159 75/75/75 78/78/78
f 81/81/81 84/84/84 83/83/83
f 81/81/81 83/83/83 82/82/82
f 83/83/83 160/160/160 161/161/161
f 83/83/83 161/161/161 82/82/82
f 161/161/161 158/158/158 79/79/79
f 161/161/161 79/79/79 82/82/82
f 85/85/85 42/42/42 41/41/41
f 85/85/85 41/41/41 86/86/86
f 41/41/41 140/140/140 162/162/162
f 41/41/41 162/162/162 86/86/86
f 162/162/162 160/160/160 83/83/83
f 162/162/162 83/83/83 86/86/86
f 31/31/31 133/133/133 163/163/163
f 31/31/31 163/163/163 88/88/88
f 163/163/163 164/164/164 87/87/87
f 163/163/163 87/87/87 88/88/88
f 87/87/87 164/164/164 165/165/165
f 87/87/87 165/165/165 90/90/90
f 165/165/165 136/136/136 89/89/89
f 165/165/165 89/89/89 90/90/90
f 9/9/9 76/76/76 73/73/73
f 9/9/9 73/73/73 92/92/92
f 73/73/73 72/72/72 91/91/91
f 73/73/73 91/91/91 92/92/92
f 95/95/95 136/136/136 165/165/165
f 95/95/95 165/165/165 96/96/96
f 165/165/165 164/164/164 166/166/166
f 165/165/165 166/166/166 96/96/96
f 166/166/166 167/167/167 93/93/93
f 166/166/166 93/93/93 96/96/96
f 99/99/99 167/167/167 166/166/166
f 99/99/99 166/166/166 100/100/100
f 166/166/166 164/164/164 163/163/163
f 166/166/166 163/163/163 100/100/100
f 163/163/163 133/133/133 97/97/97
f 163/163/163 97/97/97 100/100/100
f 101/101/101 98/98/98 107/107/107
f 101/101/101 107/107/107 102/102/102
f 107/107/107 168/168/168 169/169/169
f 107/107/107 169/169/169 102/102/102
f 169/169/169 147/147/147 57/57/57
f 169/169/169 57/57/57 102/102/102
f 103/103/103 94/94/94 93/93/93
f 103/103/103 93/93/93 104/104/104
f 93/93/93 167/167/167 170/170/170
f 93/93/93 170/170/170 104/104/104
f 170/170/170 52/52/52 49/49/49
f 170/170/170 49/49/49 104/104/104
f 105/105/105 112/112/112 111/111/111
f 105/105/105 111/111/111 106/106/106
f 111/111/111 120/120/120 119/119/119
f 111/111/111 119/119/119 106/106/106
f 119/119/119 64/64/64 61/61/61
f 119/119/119 61/61/61 106/106/106
f 7/7/7 6/6/6 127/127/127
f 7/7/7 127/127/127 108/108/108
f 127/127/127 126/126/126 171/171/171
f 127/127/127 171/171/171 108/108/108
f 171/171/171 168/168/168 107/107/107
f 171/171/171 107/107/107 108/108/108
f 109/109/109 10/10/10 91/91/91
f 109/109/109 91/91/91 110/110/110
f 91/91/91 72/72/72 69/69/69
f 91/91/91 69/69/69 110/110/110
f 113/113/113 6/6/6 5/5/5
f 113/113/113 5/5/5 114/114/114
f 5/5/5 135/135/135 27/27/27
f 5/5/5 27/27/27 114/114/114
f 27/27/27 26/26/26 123/123/123
f 27/27/27 123/123/123 114/114/114
f 123/123/123 120/120/120 111/111/111
f 123/123/123 111/111/111 114/114/114
f 53/53/53 52/52/52 170/170/170
f 53/53/53 170/170/170 115/115/115
f 170/170/170 167/167/167 99/99/99
f 170/170/170 99/99/99 115/115/115
f 99/99/99 98/98/98 101/101/101
f 99/99/99 101/101/101 115/115/115
f 116/116/116 42/42/42 137/137/137
f 116/116/116 137/137/137 117/117/117
f 137/137/137 136/136/136 95/95/95
f 137/137/137 95/95/95 117/117/117
f 1/1/1 94/94/94 103/103/103
f 1/1/1 103/103/103 118/118/118
f 103/103/103 48/48/48 45/45/45
f 103/103/103 45/45/45 118/118/118
f 121/121/121 10/10/10 109/109/109
f 121/121/121 109/109/109 122/122/122
f 109/109/109 68/68/68 65/65/65
f 109/109/109 65/65/65 122/122/122
f 65/65/65 64/64/64 119/119/119
f 65/65/65 119/119/119 122/122/122
f 36/36/36 14/14/14 11/11/11
f 36/36/36 11/11/11 124/124/124
f 11/11/11 10/10/10 121/121/121
f 11/11/11 121/121/121 124/124/124
f 121/121/121 120/120/120 123/123/123
f 121/121/121 123/123/123 124/124/124
f 127/127/127 6/6/6 113/113/113
f 127/127/127 113/113/113 128/128/128
f 113/113/113 112/112/112 131/131/131
f 113/113/113 131/131/131 128/128/128
f 131/131/131 130/130/130 125/125/125
f 131/131/131 125/125/125 128/128/128
f 131/131/131 112/112/112 105/105/105
f 131/131/131 105/105/105 132/132/132
f 105/105/105 60/60/60 59/59/59
f 105/105/105 59/59/59 132/132/132
f 59/59/59 151/151/151 129/129/129
f 59/59/59 129/129/129 132/132/132
